<?xml version="1.0" standalone="no"?>
<!DOCTYPE svg PUBLIC "-//W3C//DTD SVG 20010904//EN"
 "http://www.w3.org/TR/2001/REC-SVG-20010904/DTD/svg10.dtd">
<svg version="1.0" xmlns="http://www.w3.org/2000/svg"
 width="1024.000000pt" height="1024.000000pt" viewBox="0 0 1024.000000 1024.000000"
 preserveAspectRatio="xMidYMid meet">

<g transform="translate(0.000000,1024.000000) scale(0.100000,-0.100000)"
fill="#000000" stroke="none">
<path d="M7121 6730 l-24 -11 27 -28 c36 -37 46 -79 46 -186 0 -49 7 -177 17
-284 14 -157 15 -208 5 -272 -18 -124 -74 -213 -161 -256 -56 -28 -182 -25
-246 6 -98 48 -210 189 -246 309 l-12 42 -61 -59 c-134 -128 -344 -189 -719
-207 l-146 -7 25 -49 c45 -89 66 -214 64 -388 -1 -85 -2 -173 -3 -194 l-2 -40
219 -42 c251 -49 421 -68 554 -63 l92 4 0 -38 c0 -64 20 -123 52 -154 l29 -28
185 -3 184 -3 0 24 c0 29 -35 83 -72 110 -15 11 -49 22 -77 25 -28 2 -51 7
-51 10 0 3 7 32 16 64 15 53 21 61 58 80 69 35 160 104 214 163 95 104 149
223 195 431 29 126 50 175 99 221 58 56 95 65 288 73 199 9 250 18 333 62 98
53 180 169 151 216 -6 9 -102 57 -215 107 -277 123 -286 128 -327 198 -61 105
-194 168 -367 174 -55 1 -111 -2 -124 -7z m380 -220 c22 -12 26 -59 7 -78 -7
-7 -21 -12 -33 -12 -43 0 -60 47 -28 82 19 21 27 22 54 8z"/>
<path d="M6914 6652 c-71 -46 -128 -109 -202 -221 -79 -121 -122 -222 -122
-292 0 -153 127 -343 259 -388 47 -15 116 -14 149 3 105 55 144 184 122 407
-7 68 -15 204 -19 301 -6 169 -7 178 -30 202 -37 39 -84 35 -157 -12z"/>
<path d="M5075 5880 c-108 -15 -173 -46 -242 -115 -54 -54 -65 -73 -89 -146
-27 -80 -28 -93 -28 -284 -1 -206 6 -261 45 -353 27 -63 100 -135 167 -165
141 -64 357 -61 489 7 143 72 203 224 203 518 0 200 -35 336 -108 419 -80 91
-268 142 -437 119z m191 -269 c17 -10 39 -36 49 -57 37 -79 36 -375 -2 -452
-24 -48 -71 -72 -146 -72 -76 0 -128 26 -153 77 -17 33 -19 62 -19 223 0 210
10 246 75 282 48 25 154 25 196 -1z"/>
<path d="M2072 5868 c-9 -9 -12 -140 -12 -528 0 -430 2 -519 14 -536 14 -18
29 -19 334 -19 256 0 322 3 335 14 14 11 17 32 17 110 0 62 -5 103 -12 114
-11 15 -39 17 -213 19 l-200 3 -3 404 c-1 278 -6 408 -13 418 -15 17 -229 19
-247 1z"/>
<path d="M2836 5858 c-14 -19 -16 -68 -16 -333 0 -373 9 -466 51 -552 56 -116
154 -176 315 -192 215 -22 381 37 447 157 52 95 57 144 57 548 0 275 -3 373
-12 382 -17 17 -232 17 -246 -1 -7 -8 -12 -144 -14 -377 -3 -248 -8 -374 -15
-392 -20 -46 -57 -62 -139 -62 -84 0 -117 17 -146 75 -16 30 -18 71 -18 390 0
263 -3 358 -12 367 -8 8 -50 12 -124 12 -105 0 -114 -1 -128 -22z"/>
<path d="M3823 5869 c-10 -10 -13 -131 -13 -535 0 -473 2 -523 17 -535 22 -19
216 -20 235 -1 9 9 14 56 16 157 l3 145 97 0 c240 0 354 53 418 192 28 60 29
70 29 203 0 134 -1 143 -29 203 -35 75 -86 122 -165 154 -52 21 -75 23 -326
26 -208 2 -273 0 -282 -9z m466 -242 c53 -19 75 -56 75 -129 0 -115 -30 -139
-180 -146 l-104 -5 0 147 0 146 88 -1 c48 0 102 -5 121 -12z"/>
<path d="M2320 4612 c-147 -38 -227 -123 -267 -282 -22 -87 -28 -368 -10 -472
48 -277 210 -370 590 -341 75 5 132 14 140 22 17 17 16 206 -1 223 -9 9 -58
13 -185 13 -196 0 -222 7 -252 72 -35 73 -42 308 -14 420 6 23 24 54 41 70
l29 28 184 5 c113 3 188 9 195 16 7 7 10 50 8 115 -3 99 -4 104 -28 116 -40
20 -348 16 -430 -5z"/>
<path d="M3173 4620 c-209 -44 -297 -180 -310 -480 -13 -298 40 -469 171 -557
64 -43 132 -63 242 -70 113 -7 210 9 291 48 156 75 210 226 200 559 -5 186
-15 238 -61 327 -32 63 -102 122 -183 154 -47 18 -82 23 -183 25 -69 2 -144
-1 -167 -6z m253 -264 c43 -29 64 -92 70 -213 3 -59 1 -144 -4 -189 -18 -154
-55 -189 -194 -182 -75 3 -82 5 -108 35 -16 18 -35 52 -41 75 -16 56 -17 329
0 385 13 47 59 99 94 107 46 10 156 -1 183 -18z"/>
<path d="M5984 4616 c-85 -20 -153 -56 -203 -111 -83 -90 -111 -201 -111 -441
0 -237 32 -356 119 -443 93 -93 263 -126 523 -103 108 10 112 16 109 139 -1
54 -6 102 -12 107 -5 6 -87 10 -181 10 -241 1 -259 13 -280 186 -13 102 0 287
23 335 8 16 29 40 48 52 32 22 43 23 202 23 212 0 209 -2 209 128 0 131 8 126
-207 129 -123 2 -197 -2 -239 -11z"/>
<path d="M3887 4602 c-15 -17 -17 -68 -17 -534 0 -486 1 -516 18 -531 15 -13
39 -17 113 -17 144 0 134 -22 134 289 0 144 2 261 5 261 3 0 75 -111 160 -247
85 -136 166 -259 178 -275 23 -27 27 -28 121 -28 71 0 102 4 119 16 l22 15 0
523 c0 393 -3 525 -12 534 -8 8 -49 12 -119 12 -148 0 -139 19 -139 -294 0
-151 -4 -246 -9 -240 -5 5 -77 117 -161 249 -83 132 -160 250 -170 263 -18 20
-28 22 -123 22 -88 0 -106 -3 -120 -18z"/>
<path d="M4876 4604 c-14 -14 -16 -76 -16 -534 l0 -519 22 -15 c34 -24 659
-24 682 0 21 20 23 218 4 231 -7 4 -107 8 -223 8 l-210 0 0 85 0 85 190 3
c164 2 192 5 203 19 18 25 16 183 -4 211 -15 21 -20 22 -205 22 l-189 0 0 85
0 85 213 0 c152 0 216 3 225 12 16 16 16 210 0 226 -9 9 -99 12 -344 12 -289
0 -335 -2 -348 -16z"/>
<path d="M6540 4601 c-5 -11 -10 -60 -10 -110 0 -122 -1 -121 156 -121 l124 0
0 -408 c0 -383 1 -410 18 -425 28 -26 212 -24 235 1 15 17 17 61 17 425 l0
407 128 0 c163 0 162 0 162 128 0 69 -4 94 -16 106 -13 14 -65 16 -409 16
-380 0 -395 -1 -405 -19z"/>
<path d="M7568 4608 c-9 -7 -25 -42 -36 -78 -41 -128 -265 -916 -269 -946 -8
-50 22 -64 137 -64 52 0 100 4 106 8 18 11 30 42 49 120 l17 72 168 0 168 0
18 -76 c10 -42 27 -87 37 -100 17 -22 25 -24 116 -24 108 0 141 13 141 56 0
30 -20 103 -146 529 -120 406 -143 476 -162 498 -13 15 -35 17 -172 17 -110 0
-161 -4 -172 -12z m221 -462 c24 -88 45 -166 48 -173 4 -10 -16 -13 -90 -13
-53 0 -98 3 -100 8 -7 11 86 354 93 345 4 -4 26 -80 49 -167z"/>
</g>
</svg>
